<svg height="511pt" viewBox="-69 1 511 511.99999" width="511pt" xmlns="http://www.w3.org/2000/svg"><path d="m371.164062 422.121094-.136718-.199219-90.441406-126.324219 38.394531 8.238282c6.0625 1.527343 12.484375-.640626 16.382812-5.660157 4.230469-5.453125 4.464844-12.949219.578125-18.65625l-.144531-.21875-83.546875-113.859375 16.515625 3.277344c5.808594 1.449219 11.996094-.492188 15.945313-5.175781 4.441406-5.273438 4.980468-12.746094 1.34375-18.59375l-85.429688-137.472657c-2.917969-4.683593-7.949219-7.476562-13.464844-7.476562-.003906 0-.007812 0-.011718 0-5.519532.00390625-10.550782 2.804688-13.460938 7.488281l-85.417969 137.464844c-3.636719 5.855469-3.09375 13.324219 1.347657 18.59375 3.945312 4.683594 10.128906 6.621094 15.941406 5.171875l16.515625-3.277344-83.390625 113.648438-.304688.429687c-3.882812 5.707031-3.648437 13.203125.582032 18.65625 3.898437 5.023438 10.324218 7.1875 16.382812 5.660157l38.394531-8.238282-90.304687 126.128906-.273438.394532c-3.65625 5.46875-3.535156 12.730468.304688 18.074218 3.019531 4.199219 7.894531 6.601563 12.917968 6.601563 1.367188 0 2.746094-.179687 4.101563-.546875l166.675781-45.035156 166.667969 45.03125c6.347656 1.726562 13.191406-.710938 17.03125-6.050782 3.835937-5.34375 3.957031-12.605468.304687-18.074218zm0 0"/><path d="m137.164062 444.742188v49.355468c0 9.871094 8.03125 17.902344 17.902344 17.902344h64.191406c9.871094 0 17.902344-8.03125 17.902344-17.902344v-49.355468l-50-13.507813zm0 0"/></svg>